<svg xmlns="http://www.w3.org/2000/svg" width="33.442" height="33.442" viewBox="0 0 33.442 33.442">
  <path id="Icon_awesome-phone" data-name="Icon awesome-phone" d="M32.227,1.607,25.434.039a1.578,1.578,0,0,0-1.8.908L20.5,8.262a1.564,1.564,0,0,0,.451,1.829l3.958,3.24A24.207,24.207,0,0,1,13.337,24.9L10.1,20.947A1.566,1.566,0,0,0,8.269,20.5L.954,23.631a1.586,1.586,0,0,0-.914,1.8l1.568,6.793a1.567,1.567,0,0,0,1.528,1.215A30.3,30.3,0,0,0,33.441,3.135,1.566,1.566,0,0,0,32.227,1.607Z" transform="translate(0.001 0.001)" fill="#fff"/>
</svg>
