<svg id="Groupe_419" data-name="Groupe 419" xmlns="http://www.w3.org/2000/svg" width="61.615" height="61.615" viewBox="0 0 61.615 61.615">
  <path id="Tracé_294" data-name="Tracé 294" d="M30.808,0A30.808,30.808,0,1,1,0,30.808,30.808,30.808,0,0,1,30.808,0Z" fill="#f48a7b"/>
  <path id="Icon_material-access-time" data-name="Icon material-access-time" d="M21.155,3A18.173,18.173,0,1,0,39.346,21.173,18.164,18.164,0,0,0,21.155,3Zm.018,32.711A14.538,14.538,0,1,1,35.711,21.173,14.534,14.534,0,0,1,21.173,35.711Zm.909-23.625H19.356v10.9L28.9,28.715l1.363-2.235-8.178-4.852Z" transform="translate(9.426 9.425)" fill="#fff"/>
</svg>
