<svg xmlns="http://www.w3.org/2000/svg" width="41.146" height="54.867" viewBox="0 0 41.146 54.867">
  <path id="Icon_awesome-baby" data-name="Icon awesome-baby" d="M20.574,17.146A8.573,8.573,0,1,0,12,8.573,8.571,8.571,0,0,0,20.574,17.146ZM14.851,43.808l2.743-3.429L11,34.892,6.085,41.043A4.3,4.3,0,0,0,6,46.294l5.144,6.858A4.286,4.286,0,0,0,18,48.009Zm15.292-8.916-6.59,5.487L26.3,43.808l-3.151,4.2A4.286,4.286,0,0,0,30,53.152l5.144-6.858a4.3,4.3,0,0,0-.086-5.251l-4.919-6.151ZM40.367,15.538a4.292,4.292,0,0,0-5.969-1.05l-4.351,3.054a16.576,16.576,0,0,1-18.946,0L6.75,14.5A4.284,4.284,0,1,0,1.82,21.507l4.351,3.054A25.427,25.427,0,0,0,12,27.551v3.311H29.147v-3.3a25.427,25.427,0,0,0,5.83-2.99l4.351-3.054A4.294,4.294,0,0,0,40.367,15.538Z" transform="translate(-0.003)" fill="#fff"/>
</svg>
