<svg xmlns="http://www.w3.org/2000/svg" width="50.197" height="50.199" viewBox="0 0 50.197 50.199">
  <path id="Tracé_253" data-name="Tracé 253" d="M44.707,14.019a2.425,2.425,0,0,0,3.428,0l1.353-1.355a2.426,2.426,0,0,0,0-3.426L40.957.709a2.421,2.421,0,0,0-3.424,0L36.179,2.064a2.42,2.42,0,0,0,0,3.426l1.582,1.582L35.894,8.939l-.559-.556a2.9,2.9,0,0,0-4.109,0L7.949,31.656a2.909,2.909,0,0,0,0,4.112l2.286,2.285L0,49.875l.321.324L12.143,39.961l2.286,2.288a2.909,2.909,0,0,0,4.109,0L41.816,18.971a2.907,2.907,0,0,0,0-4.108l-.559-.559,1.867-1.869Zm-5.463-11.6,8.53,8.528L46.42,12.306l-8.528-8.53ZM34.906,21.771l-17.6,17.6-.823.823L10,33.712l4.766-4.766.546.548L17.9,32.078a.968.968,0,0,0,1.37,0,.968.968,0,0,0,0-1.37l-2.586-2.585-.548-.548,1.446-1.443.548.546,1.2,1.2A.968.968,0,1,0,20.7,26.5l-1.2-1.2-.548-.548L20.2,23.512l.548.548,1.2,1.2a.97.97,0,1,0,1.37-1.373l-1.2-1.2-.548-.546,2.2-2.2.548.548L26.9,23.082a.969.969,0,0,0,1.37-1.37l-2.586-2.586-.546-.548,2.557-2.558.554.553,1.192,1.19a.965.965,0,0,0,1.37,0,.744.744,0,0,0,.09-.139.953.953,0,0,0-.09-1.231L29.065,14.65l.6-.6,3.132,3.132a.968.968,0,1,0,1.37-1.368l-3.132-3.134,2.249-2.249.977.975a.918.918,0,0,0,.212.323l4,3.993a.969.969,0,0,0,.32.212l.977.975Zm4.98-8.838-2.622-2.624,1.6-1.6,2.625,2.627Z" fill="#fff"/>
</svg>
