<svg id="Groupe_305" data-name="Groupe 305" xmlns="http://www.w3.org/2000/svg" width="257.513" height="68.03" viewBox="0 0 257.513 68.03">
  <path id="Tracé_290" data-name="Tracé 290" d="M109.038,467.345H131.51v5.889H115.16v16.838H128.41v5.889H115.16v13.615h16.35v5.889H109.038Zm32.086,42.231h16.35v5.889H135V467.345h6.122Zm36.737-42.231h6.2l-16.2,48.353-16.2-48.353h6.122l10.074,30.3Zm8.3,0H208.63v5.889H192.28v16.838h13.251v5.889H192.28v13.615h16.35v5.889H186.158Zm32.086,0h-6.122v48.121h6.122a24.062,24.062,0,1,0,0-48.121Zm0,42.231V473.234a18.171,18.171,0,1,1,0,36.342Zm27.05-42.231h22.472v5.889h-16.35v16.838h13.251v5.889H251.416v13.615h16.35v5.889H245.294Zm53.473,17.28c0-11.081-8.911-17.28-19.372-17.28h-8.136v48.121h6.122V501.9c1.7,0,3.332,0,4.959-.155l9.686,13.716h6.742l-10.616-15.188A16.07,16.07,0,0,0,298.767,484.625Zm-19.372,11.391H277.38V473.234h2.015c6.742,0,13.251,3.487,13.251,11.391C292.646,492.451,286.292,496.016,279.395,496.016Zm28.214-22.782v16.838h13.251v5.889H307.609v13.615h16.35v5.889H301.487V467.345h22.472v5.889Z" transform="translate(-66.446 -452.03)" fill="#fff"/>
  <path id="Tracé_291" data-name="Tracé 291" d="M-199.462-517.236a24.148,24.148,0,0,0-9.506-8.8l-1.25-.651.96-1a10.983,10.983,0,0,0,3.117-7.639c0-6.515-5.544-11.618-12.622-11.618h-16.032v40.572c.412,0,8.506-.012,11.145,4.774a14.851,14.851,0,0,0,4.116,4.782c.189-.374.395-.76.619-1.15a4.439,4.439,0,0,1-1.352-1.976,7.274,7.274,0,0,1-.327-2.484,3.326,3.326,0,0,1-.593-2.54c.264-1.5,2.268-1.224,2.787-.984s.314,1,.15,1.643-.333,1.117-.333,1.117.53,1.451,1.109,2.686c0,0,.438-.126.793-.212a9.317,9.317,0,0,1,2.107-1.468,2.341,2.341,0,0,1-1.71-.482c-.782-.634-.3-1.3-.626-1.789s-.276-.682-.018-.8c0,0-.4-.177-.384-.369s.288-.111.372-.545-.127-.6-.271-.651a.928.928,0,0,1-.425-1.068,3.632,3.632,0,0,0,.907-.393,1.524,1.524,0,0,0,.461-1.474,6.5,6.5,0,0,1,.006-2.283,5.3,5.3,0,0,1,1.269-2.539,5.938,5.938,0,0,1,2.448-1.575,8.26,8.26,0,0,1,5.942-.007c3.077,1.105,4.786,3.427,4.951,5.382a6.257,6.257,0,0,1-1.493,4.5c-.928,1.3-2.13,2.274-2.755,3.7s-1.049,3.9-1.626,5.466a14.665,14.665,0,0,1-2.53,5.065c-2,2.861-3.734,4.985-5.8,6.331s-3.4,1.066-5.26-.107-2.306-3.157-2.464-5.5-1.2-1.751-3.645-2.324-.061-4.4.884-4.577,1.19-.454.792,1.917a7.777,7.777,0,0,1,2.843.907,3.969,3.969,0,0,1,1.753,1.922s.265-.813.768-1.965a16.209,16.209,0,0,1-4.775-5.437c-2.22-4.027-9.756-4.005-9.832-4l-.007,25.967h11.875c15.651,0,27.01-10.6,27.01-25.207A24.8,24.8,0,0,0-199.462-517.236Z" transform="translate(234.794 546.938)" fill="#fff"/>
</svg>
