<svg xmlns="http://www.w3.org/2000/svg" width="1824.869" height="755.284" viewBox="0 0 1824.869 755.284">
  <g id="Groupe_270" data-name="Groupe 270" transform="translate(0 0)" opacity="0.15">
    <path id="aditya-romansa-5zp0jym2w9M-unsplash" d="M.367,368.809c2.836-49.893,22.055-100.144,55.589-147.4C132.175,114,290,27.224,484.577,67.839c86.649,18.085,170.683,50.3,263.661,52.83,275.828,7.513,556.856-188.774,827.809-95.452,139.477,48.037,208.845,152.971,237.46,247.1,38.021,125.063-22.708,273.919-132.551,379.464C1594.548,734.81,1432,774.8,1280.84,745.977c-76.379-14.562-134.995-51.295-208.222-70.2-92.536-23.885-193.1-21.509-289.761-10.049-116.75,13.842-237.941,45.148-357.833,34.236-112.835-10.268-220.5-49.5-296.6-102.822C35.326,531.908-4.3,450.839.367,368.809Z" transform="translate(1824.869 755.284) rotate(180)" fill="#fbde94"/>
  </g>
</svg>
