<svg xmlns="http://www.w3.org/2000/svg" width="3513.646" height="1015.948" viewBox="0 0 3513.646 1015.948">
  <g id="Groupe_276" data-name="Groupe 276" transform="translate(0 0)" opacity="0.15">
    <path id="aditya-romansa-5zp0jym2w9M-unsplash" d="M.706,496.092c5.461-67.113,42.465-134.705,107.033-198.271C254.492,153.348,558.378,36.619,933.017,91.252c166.836,24.326,328.636,67.657,507.658,71.063C1971.76,172.421,2512.857-91.608,3034.558,33.92c268.552,64.615,402.114,205.764,457.21,332.38,73.208,168.225-43.721,368.454-255.216,510.425-166.372,111.682-479.342,165.475-770.394,126.7-147.062-19.588-259.923-69-400.916-94.425-178.172-32.128-371.807-28.932-557.914-13.517-224.792,18.62-458.138,60.729-688.98,46.052-217.255-13.812-424.556-66.581-571.076-138.308C68.018,715.479-8.272,606.433.706,496.092Z" transform="translate(3513.646 1015.947) rotate(180)" fill="#fbde94"/>
  </g>
</svg>
