<svg xmlns="http://www.w3.org/2000/svg" xmlns:xlink="http://www.w3.org/1999/xlink" width="99.992" height="101.933" viewBox="0 0 99.992 101.933">
  <defs>
    <clipPath id="clip-path">
      <rect id="Rectangle_108" data-name="Rectangle 108" width="99.992" height="101.933" fill="#f48a7b"/>
    </clipPath>
  </defs>
  <g id="Groupe_251" data-name="Groupe 251" transform="translate(0)">
    <g id="Groupe_250" data-name="Groupe 250" transform="translate(0 0)" clip-path="url(#clip-path)">
      <path id="Tracé_267" data-name="Tracé 267" d="M8.969,1.187l-.047.055.008.016Z" transform="translate(14.242 1.894)" fill="#f48a7b"/>
      <path id="Tracé_268" data-name="Tracé 268" d="M83.342,93.607A8.325,8.325,0,1,0,94.7,85.855V78.8A14.35,14.35,0,0,0,80.229,64.6H72.287a14.537,14.537,0,0,0-10.042,3.988,14.1,14.1,0,0,0-4.292,8.259l-.14.992a8.467,8.467,0,0,1-8.6,8.316H41.275a8.467,8.467,0,0,1-8.591-8.316V63.052a6.414,6.414,0,0,0,3.079-3.858C49.661,56.606,59.7,44.975,59.7,31.318V21.024A18.715,18.715,0,0,0,45.206,2.98a5.649,5.649,0,0,0-9.175-1.114l.4.891c.08-.1.151-.218.239-.314a10.524,10.524,0,0,1,3.559,7.89l-.008.125c-.135,0-.262-.031-.395-.044l.4.9A5.65,5.65,0,0,0,44.8,8.978a12.931,12.931,0,0,1,9.017,12.047V31.318c0,10.6-7.911,19.872-18.8,22.063l-.177.036a1.932,1.932,0,0,1,.345.8l.031.319v2.83a5.613,5.613,0,0,1-.109,1.093,29.744,29.744,0,0,1-4.987.423h-.537a29.707,29.707,0,0,1-5.6-.53,5.622,5.622,0,0,1-.091-.987v-2.83a1.89,1.89,0,0,1,.055-.444,1.934,1.934,0,0,1,.4-.789l-.215-.049C13.381,50.839,5.88,41.818,5.88,31.318V21.024a12.78,12.78,0,0,1,8.71-11.94,5.661,5.661,0,0,0,4.491,2.23l.4-.9a3.936,3.936,0,0,1-.392.044l-.008-.125a10.524,10.524,0,0,1,3.559-7.89,3.453,3.453,0,0,1,.239.314l.395-.891A5.651,5.651,0,0,0,14.04,3.092,18.774,18.774,0,0,0,0,21.024V31.318C0,44.66,9.754,56.237,23.267,59.072A6.454,6.454,0,0,0,26.8,63.244v14.6a14.351,14.351,0,0,0,14.471,14.2h7.942a14.558,14.558,0,0,0,10.045-3.985,14.093,14.093,0,0,0,4.183-7.586l.254-1.8a8.5,8.5,0,0,1,8.588-8.183h7.942A8.468,8.468,0,0,1,88.823,78.8V85.79a8.342,8.342,0,0,0-5.481,7.817m8.324-4.723a4.724,4.724,0,1,1-4.723,4.723,4.721,4.721,0,0,1,4.723-4.723" transform="translate(0 -0.001)" fill="#f48a7b"/>
      <path id="Tracé_269" data-name="Tracé 269" d="M13.953,1.241,13.9,1.186l.034.08.016-.026" transform="translate(22.194 1.892)" fill="#f48a7b"/>
      <path id="Tracé_270" data-name="Tracé 270" d="M11.148,1.256c-.08-.1-.151-.218-.241-.314A10.531,10.531,0,0,0,7.35,8.832l.008.125a3.8,3.8,0,0,0,.389-.044,4.769,4.769,0,0,0,3.7-7.256l-.016-.023c-.08-.132-.187-.252-.28-.376" transform="translate(11.732 1.503)" fill="#f48a7b"/>
      <path id="Tracé_271" data-name="Tracé 271" d="M14.649,1.256c-.093.125-.2.244-.283.376l-.005.016a4.765,4.765,0,0,0,3.684,7.264,3.9,3.9,0,0,0,.395.044l.005-.125A10.522,10.522,0,0,0,14.888.942c-.088.1-.161.21-.239.314" transform="translate(21.779 1.503)" fill="#f48a7b"/>
      <path id="Tracé_272" data-name="Tracé 272" d="M18.521,20.235H11.2A2.1,2.1,0,0,0,9.252,21.8a1.885,1.885,0,0,0-.052.441v2.832a5.622,5.622,0,0,0,.088.987,29.736,29.736,0,0,0,5.605.53h.537a29.767,29.767,0,0,0,4.987-.423,5.822,5.822,0,0,0,.106-1.093V22.237L20.5,21.92a2.1,2.1,0,0,0-1.976-1.685" transform="translate(14.685 32.299)" fill="#f48a7b"/>
      <path id="Tracé_273" data-name="Tracé 273" d="M33.488,38.96a4.723,4.723,0,1,0,4.723-4.723,4.723,4.723,0,0,0-4.723,4.723m8.534,0a3.813,3.813,0,1,1-3.811-3.814,3.81,3.81,0,0,1,3.811,3.814" transform="translate(53.455 54.649)" fill="#f48a7b"/>
    </g>
  </g>
</svg>
