<svg xmlns="http://www.w3.org/2000/svg" width="57.158" height="57.158" viewBox="0 0 57.158 57.158">
  <path id="Tracé_248" data-name="Tracé 248" d="M23.6,33.635A16.8,16.8,0,0,0,40.417,16.816,16.822,16.822,0,1,0,10.01,26.74L8.061,28.689,4.823,25.451a1.646,1.646,0,0,0-2.27,0l-1.4,1.4a1.607,1.607,0,0,0,0,2.272l3.236,3.232L.47,36.278a1.609,1.609,0,0,0,0,2.274l1.395,1.395a1.607,1.607,0,0,0,2.272,0l3.924-3.919,3.405,3.4a1.643,1.643,0,0,0,2.272,0l1.395-1.393a1.615,1.615,0,0,0,0-2.276l-3.405-3.407L13.679,30.4A16.868,16.868,0,0,0,23.6,33.635M15.371,8.591a11.628,11.628,0,1,1,0,16.459,11.549,11.549,0,0,1,0-16.459" transform="translate(0 28.579) rotate(-45)" fill="#fff"/>
</svg>
