<svg xmlns="http://www.w3.org/2000/svg" xmlns:xlink="http://www.w3.org/1999/xlink" viewBox="0 0 566.93 149.77"><defs><style>.cls-1{fill:url(#Dégradé_sans_nom_3);}.cls-2{fill:#f48a7b;}</style><linearGradient id="Dégradé_sans_nom_3" x1="-618.95" y1="-17.12" x2="-618.48" y2="-17.39" gradientTransform="matrix(214.4, 0, 0, -375.09, 132675.89, -6396.42)" gradientUnits="userSpaceOnUse"><stop offset="0" stop-color="#ffdd94"/><stop offset="1" stop-color="#fa897b"/></linearGradient></defs><g id="Calque_2" data-name="Calque 2"><g id="LOGO"><path id="Tracé_260" data-name="Tracé 260" class="cls-1" d="M77.79,65.39A53.23,53.23,0,0,0,56.86,46l-2.75-1.43,2.11-2.19a24.17,24.17,0,0,0,6.86-16.82C63.08,11.23,50.88,0,35.3,0H0V89.32c.91,0,18.73,0,24.54,10.51a32.66,32.66,0,0,0,9.06,10.53c.42-.82.87-1.67,1.36-2.53a9.76,9.76,0,0,1-3-4.35A15.85,15.85,0,0,1,31.27,98,7.34,7.34,0,0,1,30,92.42c.59-3.31,5-2.7,6.14-2.17s.69,2.19.33,3.62-.73,2.46-.73,2.46,1.16,3.19,2.44,5.91c0,0,1-.28,1.74-.47a20.74,20.74,0,0,1,4.64-3.23,5.17,5.17,0,0,1-3.76-1.06c-1.72-1.4-.66-2.85-1.38-3.94s-.61-1.5,0-1.77c0,0-.89-.39-.85-.81s.64-.25.82-1.2-.28-1.33-.6-1.43A2,2,0,0,1,37.78,86a8,8,0,0,0,2-.87,3.34,3.34,0,0,0,1-3.24,14.39,14.39,0,0,1,0-5,11.64,11.64,0,0,1,2.8-5.59A13.06,13.06,0,0,1,49,67.78a18.17,18.17,0,0,1,13.08,0C68.84,70.2,72.6,75.31,73,79.62s-1.25,7-3.29,9.91-4.69,5-6.06,8.15-2.31,8.58-3.58,12-1.18,4.85-5.57,11.15-8.23,11-12.76,13.94-7.49,2.35-11.58-.24-5.08-6.95-5.43-12.11-2.63-3.86-8-5.12-.14-9.67,1.94-10.08,2.62-1,1.75,4.22a17.12,17.12,0,0,1,6.26,2,8.71,8.71,0,0,1,3.85,4.23s.59-1.79,1.7-4.32a35.68,35.68,0,0,1-10.52-12C16.77,92.55.18,92.6,0,92.6l0,57.17H26.14c34.46,0,59.47-23.34,59.47-55.49A54.62,54.62,0,0,0,77.79,65.39Z"/><polygon class="cls-2" points="93.77 33.71 143.24 33.71 143.24 46.68 107.25 46.68 107.25 83.75 136.42 83.75 136.42 96.71 107.25 96.71 107.25 126.69 143.24 126.69 143.24 139.65 93.77 139.65 93.77 33.71"/><polygon class="cls-2" points="164.41 126.69 200.41 126.69 200.41 139.65 150.93 139.65 150.93 33.71 164.41 33.71 164.41 126.69"/><polygon class="cls-2" points="245.29 33.71 258.94 33.71 223.28 140.16 187.63 33.71 201.1 33.71 223.28 100.42 245.29 33.71"/><path class="cls-2" d="M334.19,33.71H320.71V139.65h13.48c29.68,0,53.57-23.37,53.57-53.05C387.76,57.08,363.88,33.71,334.19,33.71Zm.1,93h-.1v-80a40,40,0,1,1,.1,80Z"/><path class="cls-2" d="M511.47,71.75h0c0-24.39-19.62-38-42.65-38H450.91V139.65h13.47V109.8c3.75,0,7.34,0,10.92-.34l21.32,30.19h14.84l-23.37-33.44C501.91,100.76,511.47,89,511.47,71.75ZM468.82,96.83h-4.44V46.68h4.44c14.84,0,29.17,7.67,29.17,25.07C498,89,484,96.83,468.82,96.83Z"/><polygon class="cls-2" points="530.93 46.67 530.93 83.75 560.11 83.75 560.11 96.71 530.93 96.71 530.93 126.69 566.93 126.69 566.93 139.65 517.46 139.65 517.46 33.71 566.93 33.71 566.93 46.68 530.93 46.67"/><polygon class="cls-2" points="263.55 33.71 313.03 33.71 313.03 46.68 277.03 46.68 277.03 83.75 306.2 83.75 306.2 96.71 277.03 96.71 277.03 126.69 313.03 126.69 313.03 139.65 263.55 139.65 263.55 33.71"/><polygon class="cls-2" points="298.78 10.71 286.09 10.71 277.8 24.3 289.96 24.3 298.78 10.71"/><polygon class="cls-2" points="393.75 33.71 443.22 33.71 443.22 46.68 407.22 46.68 407.22 83.75 436.39 83.75 436.39 96.71 407.22 96.71 407.22 126.69 443.22 126.69 443.22 139.65 393.75 139.65 393.75 33.71"/><polygon class="cls-2" points="419.7 24.3 411.41 10.71 398.72 10.71 407.54 24.3 419.7 24.3"/></g></g></svg>