<svg id="Groupe_418" data-name="Groupe 418" xmlns="http://www.w3.org/2000/svg" width="61.615" height="61.615" viewBox="0 0 61.615 61.615">
  <path id="Tracé_294" data-name="Tracé 294" d="M30.808,0A30.808,30.808,0,1,1,0,30.808,30.808,30.808,0,0,1,30.808,0Z" fill="#f48a7b"/>
  <path id="Icon_awesome-phone" data-name="Icon awesome-phone" d="M32.227,1.607,25.434.039a1.578,1.578,0,0,0-1.8.908L20.5,8.262a1.564,1.564,0,0,0,.451,1.829l3.958,3.24A24.207,24.207,0,0,1,13.337,24.9L10.1,20.947A1.566,1.566,0,0,0,8.269,20.5L.954,23.631a1.586,1.586,0,0,0-.914,1.8l1.568,6.793a1.567,1.567,0,0,0,1.528,1.215A30.3,30.3,0,0,0,33.441,3.135,1.566,1.566,0,0,0,32.227,1.607Z" transform="translate(14.385 14.385)" fill="#fff"/>
</svg>
